# xmcd
#
# Track frame offsets:
#	187
#	16987
#	21312
#	40100
#	48662
#	55170
#	61155
#	82090
#	99052
#	111142
#	118855
#	128825
#	139620
#	159720
#	170985
#	197612
#
# Disc length: 2719 seconds
#
# Revision: 1
# Processed by: cddbd v1.5.1PL0 Copyright (c) Steve Scherf et al.
# Submitted via: CDex 1.50Beta5
#
DISCID=da0a9d10
DTITLE=a・chi-a・chi club - 魔神英雄伝ワタル3 音楽篇II
DYEAR=1992
DGENRE=
TTITLE0=a・chi-a・chi club/ラジメーション・テーマ
TTITLE1=a・chi-a・chi club/ワタルのテーマ
TTITLE2=安達忍/孤独のフェンス
TTITLE3=a・chi-a・chi club/激闘
TTITLE4=a・chi-a・chi club/水晶の言玉
TTITLE5=a・chi-a・chi club/緊迫
TTITLE6=田中真弓/星空の誓い
TTITLE7=a・chi-a・chi/Straight Eyes
TTITLE8=a・chi-a・chi club/プロローグ
TTITLE9=a・chi-a・chi club/女盗賊マズルカ
TTITLE10=a・chi-a・chi club/陰謀
TTITLE11=a・chi-a・chi club/無邪気な戯れ
TTITLE12=a・chi-a・chi club/虎王
TTITLE13=a・chi-a・chi club/悲愴
TTITLE14=a・chi-a・chi club/最後の戦い
TTITLE15=a・chi-a・chi club/エピローグ
EXTD=
EXTT0=
EXTT1=
EXTT2=
EXTT3=
EXTT4=
EXTT5=
EXTT6=
EXTT7=
EXTT8=
EXTT9=
EXTT10=
EXTT11=
EXTT12=
EXTT13=
EXTT14=
EXTT15=
PLAYORDER=
